<?xml version="1.0" standalone="no"?>
<!DOCTYPE svg PUBLIC "-//W3C//DTD SVG 20010904//EN"
 "http://www.w3.org/TR/2001/REC-SVG-20010904/DTD/svg10.dtd">
<svg version="1.0" xmlns="http://www.w3.org/2000/svg"
 width="125.000000pt" height="146.000000pt" viewBox="0 0 125.000000 146.000000"
 preserveAspectRatio="xMidYMid meet">

<g transform="translate(0.000000,146.000000) scale(0.100000,-0.100000)"
fill="#000000" stroke="none">
<path d="M515 1405 c-78 -20 -135 -43 -186 -76 -53 -33 -134 -117 -166 -169
-27 -45 -53 -134 -52 -179 0 -30 4 -24 23 39 33 113 54 149 125 221 72 71 171
127 245 137 l41 5 -20 -23 c-19 -21 -18 -21 29 4 28 15 65 26 85 26 l36 -1
-39 -22 c-21 -12 -50 -32 -65 -45 -23 -20 -19 -19 34 7 75 36 161 56 193 44
21 -8 18 -11 -35 -26 -32 -9 -67 -23 -78 -31 -18 -13 -13 -13 35 0 155 41 189
37 287 -37 64 -48 68 -72 22 -145 l-31 -49 46 45 c32 31 46 39 46 27 0 -23
-52 -80 -107 -116 -26 -17 -40 -31 -32 -31 19 0 105 54 142 88 26 25 27 25 27
5 0 -29 -45 -80 -99 -115 -68 -43 -34 -34 40 11 35 21 66 38 68 36 20 -20
-148 -117 -254 -146 -23 -7 -20 -7 15 -3 36 4 132 38 229 81 20 9 5 -34 -26
-76 -28 -37 -70 -58 -153 -78 l-55 -13 67 4 c48 3 80 11 112 29 50 28 59 23
24 -11 -62 -58 -176 -76 -322 -52 -33 5 -62 8 -64 5 -11 -10 80 -37 143 -42
82 -6 162 12 229 51 34 20 51 40 74 85 16 33 32 58 34 55 10 -10 -12 -106 -31
-132 -28 -40 -110 -81 -178 -91 l-58 -8 46 -7 c38 -7 58 -3 110 18 35 14 64
24 66 22 7 -6 -42 -59 -80 -87 -47 -34 -42 -37 16 -8 l42 21 -23 -24 c-14 -16
-20 -31 -16 -42 9 -24 -57 -154 -102 -199 -40 -40 -69 -49 -60 -19 20 66 12
69 -19 7 -36 -73 -54 -162 -55 -267 0 -94 16 -66 35 60 22 148 26 159 65 167
58 13 121 100 170 239 10 28 34 87 54 131 45 103 61 199 46 288 -34 215 -167
353 -395 412 -72 18 -230 19 -300 0z"/>
<path d="M945 1172 c-16 -8 -73 -31 -125 -49 -58 -20 -79 -31 -55 -27 47 7
183 58 211 79 25 19 7 17 -31 -3z"/>
<path d="M390 1108 c-17 -35 -30 -71 -30 -80 0 -28 -16 -21 -49 19 -34 41 -42
37 -12 -5 10 -15 24 -38 31 -51 12 -23 11 -23 -16 -17 -16 4 -38 9 -49 12 -11
2 -1 -5 23 -17 23 -12 42 -25 42 -30 0 -5 -24 -9 -52 -10 -39 0 -48 -3 -33 -9
11 -5 35 -9 53 -9 45 -1 32 -17 -20 -24 -55 -7 -182 -72 -213 -109 -19 -22
-25 -41 -25 -74 0 -42 25 -112 37 -101 2 3 0 14 -6 25 -6 12 -11 43 -11 69 0
42 5 54 30 78 27 26 38 29 116 33 104 6 125 -8 49 -32 -81 -25 -76 -37 8 -15
101 27 127 21 60 -14 -29 -15 -53 -29 -53 -32 0 -3 23 4 51 16 29 11 53 18 55
16 2 -2 -53 -40 -122 -86 -127 -84 -161 -118 -62 -62 30 17 61 31 69 31 12 0
11 -2 -1 -10 -21 -14 -9 -12 40 5 23 8 54 15 69 14 l26 0 -25 -11 c-14 -6 -38
-17 -55 -25 -16 -7 -43 -24 -60 -38 l-30 -26 50 24 c100 49 105 44 30 -32 -58
-59 -71 -68 -76 -54 -6 14 -9 10 -15 -15 -10 -47 -28 -50 -82 -12 l-47 32 39
-41 c22 -22 48 -43 58 -47 12 -4 18 -15 18 -37 0 -18 5 -39 10 -47 7 -11 10
-6 10 20 1 46 29 105 73 155 35 38 36 39 37 15 l1 -25 13 24 c16 28 23 19 33
-40 7 -42 7 -43 13 -14 5 27 9 22 35 -53 22 -64 38 -91 67 -118 21 -18 38 -37
38 -40 0 -15 -84 6 -106 27 -29 28 -31 17 -3 -22 l20 -29 -24 0 c-13 0 -36 9
-51 21 -16 13 -26 16 -26 8 0 -19 -14 -1 -27 34 l-11 32 -1 -34 c-1 -22 7 -43
20 -57 l21 -23 -33 -58 c-28 -50 -29 -55 -9 -38 12 11 33 36 45 56 22 34 27
36 92 42 68 5 163 38 163 56 0 5 -15 12 -34 15 -19 4 -44 17 -56 29 -22 23
-113 238 -104 246 3 3 36 -28 74 -69 39 -41 70 -68 70 -61 0 19 -111 131 -137
137 -26 7 -31 29 -7 38 29 11 96 -37 159 -114 34 -41 72 -80 85 -87 25 -12 21
-16 -25 -26 -11 -3 0 -5 24 -6 58 -1 43 -19 -25 -30 l-49 -8 47 -7 c32 -6 45
-12 41 -20 -24 -38 166 120 193 162 21 31 12 38 -21 16 -15 -10 -48 -23 -73
-30 -35 -9 -40 -13 -20 -13 33 -1 45 -17 19 -24 -32 -8 -101 9 -125 32 -13 12
-38 42 -55 66 l-32 44 57 -29 c50 -27 66 -30 143 -30 58 1 94 6 111 16 19 11
21 14 5 10 -66 -15 -90 -16 -139 -6 -33 7 -87 31 -138 62 -110 68 -165 95
-210 103 -55 10 -47 25 15 26 51 2 51 2 12 8 -49 7 -27 20 38 22 l42 2 -35 6
-35 7 35 11 c59 19 147 26 172 12 51 -27 238 -153 238 -161 0 -10 -72 0 -124
18 -32 12 -37 12 -27 1 6 -8 28 -19 50 -26 43 -12 233 -33 240 -25 6 5 8 4
-78 44 -41 19 -112 63 -158 97 -78 58 -131 83 -176 83 -33 0 -86 38 -87 62 0
4 39 9 88 11 77 2 72 3 -35 5 -67 1 -124 6 -127 11 -6 9 12 14 167 47 43 9 76
18 73 21 -3 4 -156 -16 -245 -32 -14 -3 10 8 54 23 44 15 87 31 95 35 35 16
-121 -14 -205 -39 -19 -6 -19 -5 3 18 28 31 118 76 197 99 80 23 50 23 -55 -1
-46 -10 -86 -17 -89 -14 -2 2 1 15 7 30 19 41 -6 17 -29 -28 -11 -22 -23 -38
-25 -35 -8 7 15 86 37 129 11 21 17 38 14 38 -3 0 -19 -28 -35 -62z m-8 -259
c52 -11 103 -37 94 -47 -3 -2 -45 3 -93 12 -48 9 -115 19 -148 23 -48 5 -55 8
-35 14 39 11 123 10 182 -2z"/>
<path d="M84 725 c-10 -8 -14 -15 -8 -15 6 0 17 7 24 15 16 19 9 19 -16 0z"/>
<path d="M550 700 c30 -11 60 -19 65 -19 18 0 -80 38 -100 38 -11 0 5 -8 35
-19z"/>
<path d="M605 582 c6 -6 40 -22 78 -37 76 -28 159 -32 217 -10 43 16 39 17
-80 15 -87 -1 -130 6 -205 35 -14 6 -17 5 -10 -3z"/>
</g>
</svg>
